<?xml version="1.0" standalone="no"?><svg xmlns:xlink="http://www.w3.org/1999/xlink" xmlns="http://www.w3.org/2000/svg" viewBox="0 0 1000 545.4633855803183" preserveAspectRatio="xMaxYMax slice"><g transform="scale(1.5193966172153714)"><rect x="0" y="0" width="658.1666666666667" height="359" fill="#ffffff"/><rect x="0" y="0" width="59.833333333333336" height="59.833333333333336" fill="#ffffff"/><rect x="0" y="0" width="29.92" height="29.92" fill="#fbbed8"/><polygon points="29.92,0 29.92,29.92 0,29.92" fill="#a5f4d0"/><rect x="29.92" y="0" width="29.92" height="29.92" fill="#fcc1da"/><polygon points="29.92,0 59.84,29.92 29.92,29.92" fill="#cbf9e4"/><rect x="0" y="29.92" width="29.92" height="29.92" fill="#b0f6d6"/><polygon points="0,29.92 29.92,29.92 0,59.84" fill="#f995c0"/><rect x="29.92" y="29.92" width="29.92" height="29.92" fill="#f6fefa"/><polygon points="29.92,29.92 59.84,29.92 59.84,59.84" fill="#c0f7de"/><rect x="59.83" y="0" width="59.83" height="59.83" fill="#fbb2d1"/><polygon points="59.83,0 119.66,59.83 59.83,59.83" fill="#d0f9e7"/><rect x="119.67" y="0" width="59.83" height="59.83" fill="#d1f9e7"/><path d="M 119.67 0 A 59.83 59.83 0 0 0 179.5 59.83 L 179.5 0" fill="#b9f7db"/><rect x="179.5" y="0" width="59.833333333333336" height="59.833333333333336" fill="#ffffff"/><rect x="179.5" y="0" width="29.92" height="29.92" fill="#d3fae8"/><path d="M 179.5 29.92 A 29.92 29.92 0 0 1 209.42000000000002 0 L 209.42000000000002 7.48 A 22.44 22.44 0 0 0 186.98 29.92" fill="#caf9e4"/><rect x="209.42" y="0" width="29.92" height="29.92" fill="#d1f9e7"/><path d="M 209.42 0 A 29.92 29.92 0 0 1 239.33999999999997 29.92 L 231.85999999999999 29.92 A 22.44 22.44 0 0 0 209.42 7.48" fill="#b5f6d9"/><rect x="179.5" y="29.92" width="29.92" height="29.92" fill="#ebfdf5"/><path d="M 179.5 29.92 A 29.92 29.92 0 0 0 209.42000000000002 59.84 L 209.42000000000002 52.36 A 22.44 22.44 0 0 1 186.98 29.92" fill="#b6f6d9"/><rect x="209.42" y="29.92" width="29.92" height="29.92" fill="#f996c1"/><path d="M 209.42 59.84 A 29.92 29.92 0 0 0 239.33999999999997 29.92 L 231.85999999999999 29.92 A 22.44 22.44 0 0 1 209.42 52.36" fill="#fbbfd9"/><rect x="239.33" y="0" width="59.83" height="59.83" fill="#dcfbed"/><path d="M 239.33 0 A 59.83 59.83 0 0 1  299.16 59.83 L 239.33 0 A 59.83 59.83 0 0 0 299.16 59.83" fill="#fcc9df"/><rect x="299.1666666666667" y="0" width="59.833333333333336" height="59.833333333333336" fill="#ffffff"/><rect x="299.17" y="0" width="29.92" height="29.92" fill="#b2f6d7"/><path d="M 299.17 29.92 A 29.92 29.92 0 0 1  329.09000000000003 0 L 329.09000000000003 29.92" fill="#f9fefc"/><rect x="329.08" y="0" width="29.92" height="29.92" fill="#fdd4e6"/><path d="M 329.08 0 A 29.92 29.92 0 0 1 359 29.92 L 329.08 29.92" fill="#d9faec"/><rect x="299.17" y="29.92" width="29.92" height="29.92" fill="#cff9e6"/><path d="M 299.17 29.92 A 29.92 29.92 0 0 0 329.09000000000003 59.84 L 329.09000000000003 29.92" fill="#fbbbd7"/><rect x="329.08" y="29.92" width="29.92" height="29.92" fill="#fcfffd"/><path d="M 329.08 59.84 A 29.92 29.92 0 0 0 359 29.92 L 329.08 29.92" fill="#d3fae8"/><rect x="359" y="0" width="59.83" height="59.83" fill="#c8f8e3"/><polygon points="359,0 418.83,59.83 359,59.83" fill="#b8f6da"/><rect x="418.83333333333337" y="0" width="59.833333333333336" height="59.833333333333336" fill="#ffffff"/><rect x="418.83" y="0" width="29.92" height="29.92" fill="#dafbec"/><circle cx="433.78999999999996" cy="14.96" r="14.96" fill="#ebfdf5"/><rect x="448.75" y="0" width="29.92" height="29.92" fill="#f87ab0"/><rect x="448.75" y="0" width="29.92" height="29.92" fill="#cef9e6"/><rect x="418.83" y="29.92" width="29.92" height="29.92" fill="#f881b4"/><circle cx="433.78999999999996" cy="44.88" r="14.96" fill="#fbb1d1"/><rect x="448.75" y="29.92" width="29.92" height="29.92" fill="#a6f4d1"/><rect x="448.75" y="29.92" width="29.92" height="29.92" fill="#f87cb2"/><rect x="478.6666666666667" y="0" width="59.833333333333336" height="59.833333333333336" fill="#ffffff"/><rect x="478.67" y="0" width="29.92" height="29.92" fill="#d1f9e7"/><polygon points="508.59000000000003,0 508.59000000000003,29.92 478.67,29.92" fill="#faa8cb"/><rect x="508.58" y="0" width="29.92" height="29.92" fill="#e1fbf0"/><polygon points="508.58,0 538.5,0 508.58,29.92" fill="#e9fcf4"/><rect x="478.67" y="29.92" width="29.92" height="29.92" fill="#fff6fa"/><polygon points="478.67,29.92 508.59000000000003,29.92 508.59000000000003,59.84" fill="#f773ac"/><rect x="508.58" y="29.92" width="29.92" height="29.92" fill="#bcf7dc"/><polygon points="508.58,29.92 538.5,59.84 508.58,59.84" fill="#c4f8e1"/><rect x="538.5" y="0" width="59.83" height="59.83" fill="#fbb2d2"/><path d="M 538.5 0 A 59.83 59.83 0 0 1  598.33 59.83 L 538.5 0 A 59.83 59.83 0 0 0 598.33 59.83" fill="#fffcfd"/><rect x="598.33" y="0" width="59.83" height="59.83" fill="#f889b9"/><rect x="598.33" y="0" width="59.83" height="59.83" fill="#fbaecf"/><rect x="0" y="59.83" width="59.83" height="59.83" fill="#fbb6d4"/><polygon points="0,59.83 59.83,59.83 59.83,119.66" fill="#f879af"/><rect x="59.833333333333336" y="59.833333333333336" width="59.833333333333336" height="59.833333333333336" fill="#ffffff"/><rect x="59.83" y="59.83" width="29.92" height="29.92" fill="#d0f9e7"/><polygon points="89.75,59.83 89.75,89.75 59.83,89.75" fill="#c6f8e2"/><rect x="89.75" y="59.83" width="29.92" height="29.92" fill="#d9faeb"/><polygon points="89.75,59.83 119.67,59.83 89.75,89.75" fill="#e5fcf2"/><rect x="59.83" y="89.75" width="29.92" height="29.92" fill="#f999c2"/><polygon points="59.83,89.75 89.75,89.75 89.75,119.67" fill="#f772ab"/><rect x="89.75" y="89.75" width="29.92" height="29.92" fill="#f5fefa"/><polygon points="89.75,89.75 119.67,119.67 89.75,119.67" fill="#abf5d3"/><rect x="119.67" y="59.83" width="59.83" height="59.83" fill="#f3fef9"/><path d="M 119.67 119.66 A 59.83 59.83 0 0 0 179.5 59.83 L 119.67 59.83" fill="#fbb9d5"/><rect x="179.5" y="59.83" width="59.83" height="59.83" fill="#e9fcf4"/><path d="M 179.5 119.66 A 59.83 59.83 0 0 1  239.32999999999998 59.83 L 239.32999999999998 119.66" fill="#f2fdf8"/><rect x="239.33333333333334" y="59.833333333333336" width="59.833333333333336" height="59.833333333333336" fill="#ffffff"/><rect x="239.33" y="59.83" width="29.92" height="29.92" fill="#acf5d4"/><path d="M 239.33 89.75 A 29.92 29.92 0 0 0 269.25 59.83 L 239.33 59.83" fill="#f878af"/><rect x="269.25" y="59.83" width="29.92" height="29.92" fill="#e9fcf4"/><path d="M 269.25 59.83 A 29.92 29.92 0 0 0 299.17 89.75 L 299.17 59.83" fill="#b3f6d8"/><rect x="239.33" y="89.75" width="29.92" height="29.92" fill="#fddcea"/><path d="M 239.33 89.75 A 29.92 29.92 0 0 1 269.25 119.67 L 239.33 119.67" fill="#f87eb2"/><rect x="269.25" y="89.75" width="29.92" height="29.92" fill="#fddae9"/><path d="M 269.25 119.67 A 29.92 29.92 0 0 1  299.17 89.75 L 299.17 119.67" fill="#fff7fa"/><rect x="299.1666666666667" y="59.833333333333336" width="59.833333333333336" height="59.833333333333336" fill="#ffffff"/><rect x="299.17" y="59.83" width="29.92" height="29.92" fill="#fccbe0"/><circle cx="314.13" cy="74.78999999999999" r="14.96" fill="#fa9cc4"/><rect x="329.08" y="59.83" width="29.92" height="29.92" fill="#aaf5d3"/><rect x="329.08" y="59.83" width="29.92" height="29.92" fill="#fbbed9"/><rect x="299.17" y="89.75" width="29.92" height="29.92" fill="#f992be"/><circle cx="314.13" cy="104.71000000000001" r="14.96" fill="#d2fae8"/><rect x="329.08" y="89.75" width="29.92" height="29.92" fill="#f999c3"/><rect x="329.08" y="89.75" width="29.92" height="29.92" fill="#fff8fb"/><rect x="359" y="59.83" width="59.83" height="59.83" fill="#fbbdd8"/><polygon points="359,59.83 418.83,119.66 359,119.66" fill="#fa9dc5"/><rect x="418.83" y="59.83" width="59.83" height="59.83" fill="#faacce"/><path d="M 418.83 59.83 A 59.83 59.83 0 0 1  478.65999999999997 119.66 L 418.83 59.83 A 59.83 59.83 0 0 0 478.65999999999997 119.66" fill="#d6faea"/><rect x="478.67" y="59.83" width="59.83" height="59.83" fill="#ffffff"/><path d="M 478.67 59.83 A 59.83 59.83 0 0 1 538.5 119.66 L 478.67 119.66" fill="#eafcf4"/><rect x="538.5" y="59.833333333333336" width="59.833333333333336" height="59.833333333333336" fill="#ffffff"/><rect x="538.5" y="59.83" width="29.92" height="29.92" fill="#fcc2db"/><polygon points="568.42,59.83 568.42,89.75 538.5,89.75" fill="#a7f4d2"/><rect x="568.42" y="59.83" width="29.92" height="29.92" fill="#fa9dc5"/><polygon points="568.42,59.83 598.3399999999999,89.75 568.42,89.75" fill="#fbb6d3"/><rect x="538.5" y="89.75" width="29.92" height="29.92" fill="#f98ab9"/><polygon points="538.5,89.75 568.42,89.75 568.42,119.67" fill="#feffff"/><rect x="568.42" y="89.75" width="29.92" height="29.92" fill="#fee4ef"/><polygon points="568.42,89.75 598.3399999999999,89.75 568.42,119.67" fill="#f0fdf7"/><rect x="598.33" y="59.83" width="59.83" height="59.83" fill="#fcfffe"/><polygon points="598.33,59.83 658.1600000000001,119.66 598.33,119.66" fill="#fa9dc5"/><rect x="0" y="119.67" width="59.83" height="59.83" fill="#defbee"/><path d="M 0 179.5 A 59.83 59.83 0 0 1  59.83 119.67 L 0 179.5 A 59.83 59.83 0 0 0 59.83 119.67" fill="#b3f6d8"/><rect x="59.83" y="119.67" width="59.83" height="59.83" fill="#b8f6db"/><rect x="59.83" y="119.67" width="59.83" height="59.83" fill="#a6f4d1"/><rect x="119.66666666666667" y="119.66666666666667" width="59.833333333333336" height="59.833333333333336" fill="#ffffff"/><rect x="119.67" y="119.67" width="29.92" height="29.92" fill="#cef9e6"/><polygon points="149.59,119.67 149.59,149.59 119.67,149.59" fill="#f888b9"/><rect x="149.58" y="119.67" width="29.92" height="29.92" fill="#cbf9e4"/><polygon points="149.58,119.67 179.5,149.59 149.58,149.59" fill="#c3f8e0"/><rect x="119.67" y="149.58" width="29.92" height="29.92" fill="#f7fefb"/><polygon points="119.67,149.58 149.59,149.58 119.67,179.5" fill="#fff8fb"/><rect x="149.58" y="149.58" width="29.92" height="29.92" fill="#feeff6"/><polygon points="149.58,149.58 179.5,149.58 179.5,179.5" fill="#c8f8e3"/><rect x="179.5" y="119.66666666666667" width="59.833333333333336" height="59.833333333333336" fill="#ffffff"/><rect x="179.5" y="119.67" width="29.92" height="29.92" fill="#c9f8e3"/><path d="M 179.5 119.67 A 29.92 29.92 0 0 0 209.42000000000002 149.59 L 209.42000000000002 119.67" fill="#f7fefb"/><rect x="209.42" y="119.67" width="29.92" height="29.92" fill="#fde0ec"/><path d="M 209.42 149.59 A 29.92 29.92 0 0 0 239.33999999999997 119.67 L 209.42 119.67" fill="#f98fbc"/><rect x="179.5" y="149.58" width="29.92" height="29.92" fill="#acf5d4"/><path d="M 179.5 179.5 A 29.92 29.92 0 0 1  209.42000000000002 149.58 L 209.42000000000002 179.5" fill="#fddfec"/><rect x="209.42" y="149.58" width="29.92" height="29.92" fill="#fffcfd"/><path d="M 209.42 149.58 A 29.92 29.92 0 0 1 239.33999999999997 179.5 L 209.42 179.5" fill="#a6f4d1"/><rect x="239.33333333333334" y="119.66666666666667" width="59.833333333333336" height="59.833333333333336" fill="#ffffff"/><rect x="239.33" y="119.67" width="29.92" height="29.92" fill="#ecfdf5"/><path d="M 239.33 149.59 A 29.92 29.92 0 0 1 269.25 119.67 L 269.25 127.15 A 22.44 22.44 0 0 0 246.81 149.59" fill="#f3fef9"/><rect x="269.25" y="119.67" width="29.92" height="29.92" fill="#dafbec"/><path d="M 269.25 119.67 A 29.92 29.92 0 0 1 299.17 149.59 L 291.69 149.59 A 22.44 22.44 0 0 0 269.25 127.15" fill="#e0fbef"/><rect x="239.33" y="149.58" width="29.92" height="29.92" fill="#f999c3"/><path d="M 239.33 149.58 A 29.92 29.92 0 0 0 269.25 179.5 L 269.25 172.02 A 22.44 22.44 0 0 1 246.81 149.58" fill="#feffff"/><rect x="269.25" y="149.58" width="29.92" height="29.92" fill="#adf5d5"/><path d="M 269.25 179.5 A 29.92 29.92 0 0 0 299.17 149.58 L 291.69 149.58 A 22.44 22.44 0 0 1 269.25 172.02" fill="#fbaecf"/><rect x="299.17" y="119.67" width="59.83" height="59.83" fill="#feecf4"/><polygon points="299.17,119.67 359,119.67 299.17,179.5" fill="#d3fae8"/><rect x="359" y="119.66666666666667" width="59.833333333333336" height="59.833333333333336" fill="#ffffff"/><rect x="359" y="119.67" width="29.92" height="29.92" fill="#fbbcd7"/><path d="M 359 149.59 A 29.92 29.92 0 0 0 388.92 119.67 L 359 119.67" fill="#fcfffd"/><rect x="388.92" y="119.67" width="29.92" height="29.92" fill="#fbb4d2"/><path d="M 388.92 119.67 A 29.92 29.92 0 0 0 418.84000000000003 149.59 L 418.84000000000003 119.67" fill="#b4f6d8"/><rect x="359" y="149.58" width="29.92" height="29.92" fill="#a8f4d2"/><path d="M 359 149.58 A 29.92 29.92 0 0 1 388.92 179.5 L 359 179.5" fill="#cef9e6"/><rect x="388.92" y="149.58" width="29.92" height="29.92" fill="#c4f8e1"/><path d="M 388.92 179.5 A 29.92 29.92 0 0 1  418.84000000000003 149.58 L 418.84000000000003 179.5" fill="#c1f7df"/><rect x="418.83333333333337" y="119.66666666666667" width="59.833333333333336" height="59.833333333333336" fill="#ffffff"/><rect x="418.83" y="119.67" width="29.92" height="29.92" fill="#fcd1e4"/><path d="M 418.83 149.59 A 29.92 29.92 0 0 1  448.75 119.67 L 448.75 149.59" fill="#cef9e6"/><rect x="448.75" y="119.67" width="29.92" height="29.92" fill="#fbb5d3"/><path d="M 448.75 119.67 A 29.92 29.92 0 0 1 478.67 149.59 L 448.75 149.59" fill="#ccf9e5"/><rect x="418.83" y="149.58" width="29.92" height="29.92" fill="#fbaecf"/><path d="M 418.83 149.58 A 29.92 29.92 0 0 0 448.75 179.5 L 448.75 149.58" fill="#f3fef9"/><rect x="448.75" y="149.58" width="29.92" height="29.92" fill="#fde0ec"/><path d="M 448.75 179.5 A 29.92 29.92 0 0 0 478.67 149.58 L 448.75 149.58" fill="#faa3c8"/><rect x="478.67" y="119.67" width="59.83" height="59.83" fill="#b8f6db"/><rect x="478.67" y="119.67" width="59.83" height="59.83" fill="#fee8f1"/><rect x="538.5" y="119.67" width="59.83" height="59.83" fill="#baf7db"/><rect x="538.5" y="119.67" width="59.83" height="59.83" fill="#cff9e6"/><rect x="598.3333333333334" y="119.66666666666667" width="59.833333333333336" height="59.833333333333336" fill="#ffffff"/><rect x="598.33" y="119.67" width="29.92" height="29.92" fill="#faa6ca"/><path d="M 598.33 119.67 A 29.92 29.92 0 0 0 628.25 149.59 L 628.25 119.67" fill="#e6fcf2"/><rect x="628.25" y="119.67" width="29.92" height="29.92" fill="#aef5d5"/><path d="M 628.25 149.59 A 29.92 29.92 0 0 0 658.17 119.67 L 628.25 119.67" fill="#feecf3"/><rect x="598.33" y="149.58" width="29.92" height="29.92" fill="#e8fcf3"/><path d="M 598.33 179.5 A 29.92 29.92 0 0 1  628.25 149.58 L 628.25 179.5" fill="#fdddeb"/><rect x="628.25" y="149.58" width="29.92" height="29.92" fill="#faa6ca"/><path d="M 628.25 149.58 A 29.92 29.92 0 0 1 658.17 179.5 L 628.25 179.5" fill="#e3fcf0"/><rect x="0" y="179.5" width="59.83" height="59.83" fill="#eefdf6"/><rect x="0" y="179.5" width="59.83" height="59.83" fill="#f887b8"/><rect x="59.83" y="179.5" width="59.83" height="59.83" fill="#fafefd"/><path d="M 59.83 239.32999999999998 A 59.83 59.83 0 0 0 119.66 179.5 L 59.83 179.5" fill="#baf7db"/><rect x="119.67" y="179.5" width="59.83" height="59.83" fill="#f881b5"/><path d="M 119.67 179.5 A 59.83 59.83 0 0 1  179.5 239.32999999999998 L 119.67 179.5 A 59.83 59.83 0 0 0 179.5 239.32999999999998" fill="#f995c0"/><rect x="179.5" y="179.5" width="59.833333333333336" height="59.833333333333336" fill="#ffffff"/><rect x="179.5" y="179.5" width="29.92" height="29.92" fill="#f98fbd"/><polygon points="209.42000000000002,179.5 209.42000000000002,209.42000000000002 179.5,209.42000000000002" fill="#fcc4dc"/><rect x="209.42" y="179.5" width="29.92" height="29.92" fill="#c7f8e2"/><polygon points="209.42,179.5 239.33999999999997,209.42000000000002 209.42,209.42000000000002" fill="#fccde2"/><rect x="179.5" y="209.42" width="29.92" height="29.92" fill="#c0f7df"/><polygon points="179.5,209.42 209.42000000000002,209.42 179.5,239.33999999999997" fill="#ebfdf4"/><rect x="209.42" y="209.42" width="29.92" height="29.92" fill="#faa9cc"/><polygon points="209.42,209.42 239.33999999999997,209.42 239.33999999999997,239.33999999999997" fill="#adf5d4"/><rect x="239.33" y="179.5" width="59.83" height="59.83" fill="#faa2c8"/><polygon points="239.33,179.5 299.16,179.5 239.33,239.32999999999998" fill="#f770aa"/><rect x="299.17" y="179.5" width="59.83" height="59.83" fill="#fbb6d3"/><path d="M 299.17 179.5 A 59.83 59.83 0 0 0 359 239.32999999999998 L 359 179.5" fill="#cbf9e4"/><rect x="359" y="179.5" width="59.833333333333336" height="59.833333333333336" fill="#ffffff"/><rect x="359" y="179.5" width="29.92" height="29.92" fill="#fcc6dd"/><polygon points="388.92,179.5 388.92,209.42000000000002 359,209.42000000000002" fill="#f887b8"/><rect x="388.92" y="179.5" width="29.92" height="29.92" fill="#fde1ed"/><polygon points="388.92,179.5 418.84000000000003,179.5 388.92,209.42000000000002" fill="#b0f5d6"/><rect x="359" y="209.42" width="29.92" height="29.92" fill="#fffbfd"/><polygon points="359,209.42 388.92,209.42 388.92,239.33999999999997" fill="#fdd4e6"/><rect x="388.92" y="209.42" width="29.92" height="29.92" fill="#cef9e6"/><polygon points="388.92,209.42 418.84000000000003,239.33999999999997 388.92,239.33999999999997" fill="#b3f6d8"/><rect x="418.83" y="179.5" width="59.83" height="59.83" fill="#b4f6d8"/><path d="M 418.83 239.32999999999998 A 59.83 59.83 0 0 1  478.65999999999997 179.5 L 418.83 239.32999999999998 A 59.83 59.83 0 0 0 478.65999999999997 179.5" fill="#c4f8e1"/><rect x="478.67" y="179.5" width="59.83" height="59.83" fill="#c5f8e1"/><polygon points="478.67,179.5 538.5,239.32999999999998 478.67,239.32999999999998" fill="#fee7f1"/><rect x="538.5" y="179.5" width="59.833333333333336" height="59.833333333333336" fill="#ffffff"/><rect x="538.5" y="179.5" width="29.92" height="29.92" fill="#fa9cc4"/><polygon points="568.42,179.5 568.42,209.42000000000002 538.5,209.42000000000002" fill="#faa5c9"/><rect x="568.42" y="179.5" width="29.92" height="29.92" fill="#e6fcf2"/><polygon points="568.42,179.5 598.3399999999999,209.42000000000002 568.42,209.42000000000002" fill="#bdf7dd"/><rect x="538.5" y="209.42" width="29.92" height="29.92" fill="#fbbcd7"/><polygon points="538.5,209.42 568.42,209.42 568.42,239.33999999999997" fill="#f884b6"/><rect x="568.42" y="209.42" width="29.92" height="29.92" fill="#d6faea"/><polygon points="568.42,209.42 598.3399999999999,209.42 568.42,239.33999999999997" fill="#faa8cb"/><rect x="598.33" y="179.5" width="59.83" height="59.83" fill="#ebfdf5"/><polygon points="598.33,179.5 658.1600000000001,239.32999999999998 598.33,239.32999999999998" fill="#d0f9e6"/><rect x="0" y="239.33333333333334" width="59.833333333333336" height="59.833333333333336" fill="#ffffff"/><rect x="0" y="239.33" width="29.92" height="29.92" fill="#f882b5"/><path d="M 0 269.25 A 29.92 29.92 0 0 1 29.92 239.33 L 29.92 246.81 A 22.44 22.44 0 0 0 7.48 269.25" fill="#fef4f8"/><rect x="29.92" y="239.33" width="29.92" height="29.92" fill="#d6faea"/><path d="M 29.92 239.33 A 29.92 29.92 0 0 1 59.84 269.25 L 52.36 269.25 A 22.44 22.44 0 0 0 29.92 246.81" fill="#b4f6d8"/><rect x="0" y="269.25" width="29.92" height="29.92" fill="#fee4ef"/><path d="M 0 269.25 A 29.92 29.92 0 0 0 29.92 299.17 L 29.92 291.69 A 22.44 22.44 0 0 1 7.48 269.25" fill="#fdd6e6"/><rect x="29.92" y="269.25" width="29.92" height="29.92" fill="#fddae9"/><path d="M 29.92 299.17 A 29.92 29.92 0 0 0 59.84 269.25 L 52.36 269.25 A 22.44 22.44 0 0 1 29.92 291.69" fill="#f887b8"/><rect x="59.83" y="239.33" width="59.83" height="59.83" fill="#fccce1"/><path d="M 59.83 299.16 A 59.83 59.83 0 0 1  119.66 239.33 L 119.66 299.16" fill="#e4fcf1"/><rect x="119.67" y="239.33" width="59.83" height="59.83" fill="#c8f8e3"/><rect x="119.67" y="239.33" width="59.83" height="59.83" fill="#fddfec"/><rect x="179.5" y="239.33" width="59.83" height="59.83" fill="#fccfe3"/><rect x="179.5" y="239.33" width="59.83" height="59.83" fill="#f87cb1"/><rect x="239.33" y="239.33" width="59.83" height="59.83" fill="#e8fcf3"/><rect x="239.33" y="239.33" width="59.83" height="59.83" fill="#fbb0d0"/><rect x="299.1666666666667" y="239.33333333333334" width="59.833333333333336" height="59.833333333333336" fill="#ffffff"/><rect x="299.17" y="239.33" width="29.92" height="29.92" fill="#fccee2"/><polygon points="329.09000000000003,239.33 329.09000000000003,269.25 299.17,269.25" fill="#faa9cc"/><rect x="329.08" y="239.33" width="29.92" height="29.92" fill="#b5f6d9"/><polygon points="329.08,239.33 359,239.33 329.08,269.25" fill="#f98aba"/><rect x="299.17" y="269.25" width="29.92" height="29.92" fill="#faacce"/><polygon points="299.17,269.25 329.09000000000003,269.25 329.09000000000003,299.17" fill="#fbbbd7"/><rect x="329.08" y="269.25" width="29.92" height="29.92" fill="#fffdfe"/><polygon points="329.08,269.25 359,299.17 329.08,299.17" fill="#cff9e6"/><rect x="359" y="239.33" width="59.83" height="59.83" fill="#abf5d4"/><path d="M 359 239.33 A 59.83 59.83 0 0 0 418.83 299.16 L 418.83 239.33" fill="#f888b9"/><rect x="418.83333333333337" y="239.33333333333334" width="59.833333333333336" height="59.833333333333336" fill="#ffffff"/><rect x="418.83" y="239.33" width="29.92" height="29.92" fill="#d9faec"/><path d="M 418.83 269.25 A 29.92 29.92 0 0 1 448.75 239.33 L 448.75 246.81 A 22.44 22.44 0 0 0 426.31 269.25" fill="#ccf9e4"/><rect x="448.75" y="239.33" width="29.92" height="29.92" fill="#c7f8e2"/><path d="M 448.75 239.33 A 29.92 29.92 0 0 1 478.67 269.25 L 471.19 269.25 A 22.44 22.44 0 0 0 448.75 246.81" fill="#b7f6da"/><rect x="418.83" y="269.25" width="29.92" height="29.92" fill="#ecfdf5"/><path d="M 418.83 269.25 A 29.92 29.92 0 0 0 448.75 299.17 L 448.75 291.69 A 22.44 22.44 0 0 1 426.31 269.25" fill="#caf9e4"/><rect x="448.75" y="269.25" width="29.92" height="29.92" fill="#faa5ca"/><path d="M 448.75 299.17 A 29.92 29.92 0 0 0 478.67 269.25 L 471.19 269.25 A 22.44 22.44 0 0 1 448.75 291.69" fill="#ebfdf5"/><rect x="478.6666666666667" y="239.33333333333334" width="59.833333333333336" height="59.833333333333336" fill="#ffffff"/><rect x="478.67" y="239.33" width="29.92" height="29.92" fill="#f996c1"/><path d="M 478.67 269.25 A 29.92 29.92 0 0 1  508.59000000000003 239.33 L 508.59000000000003 269.25" fill="#f5fefa"/><rect x="508.58" y="239.33" width="29.92" height="29.92" fill="#fcc9df"/><path d="M 508.58 239.33 A 29.92 29.92 0 0 1 538.5 269.25 L 508.58 269.25" fill="#edfdf6"/><rect x="478.67" y="269.25" width="29.92" height="29.92" fill="#c5f8e1"/><path d="M 478.67 269.25 A 29.92 29.92 0 0 0 508.59000000000003 299.17 L 508.59000000000003 269.25" fill="#aaf5d3"/><rect x="508.58" y="269.25" width="29.92" height="29.92" fill="#edfdf6"/><path d="M 508.58 299.17 A 29.92 29.92 0 0 0 538.5 269.25 L 508.58 269.25" fill="#fee7f1"/><rect x="538.5" y="239.33" width="59.83" height="59.83" fill="#fbaecf"/><rect x="538.5" y="239.33" width="59.83" height="59.83" fill="#e4fcf1"/><rect x="598.3333333333334" y="239.33333333333334" width="59.833333333333336" height="59.833333333333336" fill="#ffffff"/><rect x="598.33" y="239.33" width="29.92" height="29.92" fill="#fafefc"/><path d="M 598.33 239.33 A 29.92 29.92 0 0 0 628.25 269.25 L 628.25 239.33" fill="#fde3ef"/><rect x="628.25" y="239.33" width="29.92" height="29.92" fill="#fbb4d3"/><path d="M 628.25 269.25 A 29.92 29.92 0 0 0 658.17 239.33 L 628.25 239.33" fill="#c7f8e2"/><rect x="598.33" y="269.25" width="29.92" height="29.92" fill="#fa9ec5"/><path d="M 598.33 299.17 A 29.92 29.92 0 0 1  628.25 269.25 L 628.25 299.17" fill="#fddbe9"/><rect x="628.25" y="269.25" width="29.92" height="29.92" fill="#c2f8df"/><path d="M 628.25 269.25 A 29.92 29.92 0 0 1 658.17 299.17 L 628.25 299.17" fill="#f87eb2"/><rect x="0" y="299.1666666666667" width="59.833333333333336" height="59.833333333333336" fill="#ffffff"/><rect x="0" y="299.17" width="29.92" height="29.92" fill="#fbbed8"/><polygon points="29.92,299.17 29.92,329.09000000000003 0,329.09000000000003" fill="#f774ad"/><rect x="29.92" y="299.17" width="29.92" height="29.92" fill="#faadcf"/><polygon points="29.92,299.17 59.84,329.09000000000003 29.92,329.09000000000003" fill="#fccce1"/><rect x="0" y="329.08" width="29.92" height="29.92" fill="#bdf7dd"/><polygon points="0,329.08 29.92,329.08 29.92,359" fill="#e2fbf0"/><rect x="29.92" y="329.08" width="29.92" height="29.92" fill="#e2fbf0"/><polygon points="29.92,329.08 59.84,329.08 29.92,359" fill="#a9f5d2"/><rect x="59.833333333333336" y="299.1666666666667" width="59.833333333333336" height="59.833333333333336" fill="#ffffff"/><rect x="59.83" y="299.17" width="29.92" height="29.92" fill="#f994c0"/><circle cx="74.78999999999999" cy="314.13" r="14.96" fill="#baf7db"/><rect x="89.75" y="299.17" width="29.92" height="29.92" fill="#c9f8e3"/><rect x="89.75" y="299.17" width="29.92" height="29.92" fill="#fde0ec"/><rect x="59.83" y="329.08" width="29.92" height="29.92" fill="#c7f8e2"/><circle cx="74.78999999999999" cy="344.03999999999996" r="14.96" fill="#bdf7dd"/><rect x="89.75" y="329.08" width="29.92" height="29.92" fill="#b1f6d7"/><rect x="89.75" y="329.08" width="29.92" height="29.92" fill="#dcfbed"/><rect x="119.67" y="299.17" width="59.83" height="59.83" fill="#faa9cc"/><rect x="119.67" y="299.17" width="59.83" height="59.83" fill="#b7f6da"/><rect x="179.5" y="299.17" width="59.83" height="59.83" fill="#fccde2"/><polygon points="239.32999999999998,299.17 239.32999999999998,359 179.5,359" fill="#fcc5dd"/><rect x="239.33333333333334" y="299.1666666666667" width="59.833333333333336" height="59.833333333333336" fill="#ffffff"/><rect x="239.33" y="299.17" width="29.92" height="29.92" fill="#f996c1"/><path d="M 239.33 329.09000000000003 A 29.92 29.92 0 0 1  269.25 299.17 L 269.25 329.09000000000003" fill="#fbb4d2"/><rect x="269.25" y="299.17" width="29.92" height="29.92" fill="#f879b0"/><path d="M 269.25 299.17 A 29.92 29.92 0 0 1 299.17 329.09000000000003 L 269.25 329.09000000000003" fill="#f1fdf8"/><rect x="239.33" y="329.08" width="29.92" height="29.92" fill="#f87eb3"/><path d="M 239.33 329.08 A 29.92 29.92 0 0 0 269.25 359 L 269.25 329.08" fill="#aff5d5"/><rect x="269.25" y="329.08" width="29.92" height="29.92" fill="#f4fef9"/><path d="M 269.25 359 A 29.92 29.92 0 0 0 299.17 329.08 L 269.25 329.08" fill="#fdfffe"/><rect x="299.17" y="299.17" width="59.83" height="59.83" fill="#c7f8e2"/><polygon points="359,299.17 359,359 299.17,359" fill="#fef4f8"/><rect x="359" y="299.17" width="59.83" height="59.83" fill="#f5fefa"/><rect x="359" y="299.17" width="59.83" height="59.83" fill="#aef5d5"/><rect x="418.83" y="299.17" width="59.83" height="59.83" fill="#dcfbed"/><path d="M 418.83 299.17 A 59.83 59.83 0 0 0 478.65999999999997 359 L 478.65999999999997 299.17" fill="#f772ab"/><rect x="478.6666666666667" y="299.1666666666667" width="59.833333333333336" height="59.833333333333336" fill="#ffffff"/><rect x="478.67" y="299.17" width="29.92" height="29.92" fill="#baf7db"/><path d="M 478.67 299.17 A 29.92 29.92 0 0 1 508.59000000000003 329.09000000000003 L 478.67 329.09000000000003" fill="#c2f8e0"/><rect x="508.58" y="299.17" width="29.92" height="29.92" fill="#fef3f8"/><path d="M 508.58 329.09000000000003 A 29.92 29.92 0 0 1  538.5 299.17 L 538.5 329.09000000000003" fill="#fef0f6"/><rect x="478.67" y="329.08" width="29.92" height="29.92" fill="#feecf4"/><path d="M 478.67 359 A 29.92 29.92 0 0 0 508.59000000000003 329.08 L 478.67 329.08" fill="#cdf9e5"/><rect x="508.58" y="329.08" width="29.92" height="29.92" fill="#f884b6"/><path d="M 508.58 329.08 A 29.92 29.92 0 0 0 538.5 359 L 538.5 329.08" fill="#fdd3e5"/><rect x="538.5" y="299.1666666666667" width="59.833333333333336" height="59.833333333333336" fill="#ffffff"/><rect x="538.5" y="299.17" width="29.92" height="29.92" fill="#faa4c9"/><path d="M 538.5 329.09000000000003 A 29.92 29.92 0 0 0 568.42 299.17 L 538.5 299.17" fill="#b7f6da"/><rect x="568.42" y="299.17" width="29.92" height="29.92" fill="#f9fefc"/><path d="M 568.42 299.17 A 29.92 29.92 0 0 0 598.3399999999999 329.09000000000003 L 598.3399999999999 299.17" fill="#c3f8e0"/><rect x="538.5" y="329.08" width="29.92" height="29.92" fill="#fffdfe"/><path d="M 538.5 329.08 A 29.92 29.92 0 0 1 568.42 359 L 538.5 359" fill="#f98ebc"/><rect x="568.42" y="329.08" width="29.92" height="29.92" fill="#f776ae"/><path d="M 568.42 359 A 29.92 29.92 0 0 1  598.3399999999999 329.08 L 598.3399999999999 359" fill="#a8f4d2"/><rect x="598.3333333333334" y="299.1666666666667" width="59.833333333333336" height="59.833333333333336" fill="#ffffff"/><rect x="598.33" y="299.17" width="29.92" height="29.92" fill="#d1f9e7"/><circle cx="613.2900000000001" cy="314.13" r="14.96" fill="#dffbef"/><rect x="628.25" y="299.17" width="29.92" height="29.92" fill="#cef9e6"/><rect x="628.25" y="299.17" width="29.92" height="29.92" fill="#f6fefa"/><rect x="598.33" y="329.08" width="29.92" height="29.92" fill="#c4f8e1"/><circle cx="613.2900000000001" cy="344.03999999999996" r="14.96" fill="#fcc6dd"/><rect x="628.25" y="329.08" width="29.92" height="29.92" fill="#e7fcf2"/><rect x="628.25" y="329.08" width="29.92" height="29.92" fill="#e3fcf1"/></g></svg>